<?xml version="1.0" encoding="UTF-8"?>
<svg id="Layer_1" data-name="Layer 1" xmlns="http://www.w3.org/2000/svg" viewBox="0 0 792.4 222.64">
  <defs>
    <style>
      .cls-1 {
        stroke-width: 0px;
      }
    </style>
  </defs>
  <path class="cls-1" d="M150.9,18.77c-10.22,23.37-11.3,46.27,2.57,68.1,13.82,21.76,35.4,29.62,61.05,31.16-.53,12.77-.36,25.27-1.78,37.58-1.18,10.29-7.58,18.2-16.56,23.2-24.13,13.46-48.38,26.69-72.78,39.65-11.05,5.87-22.65,5.38-33.6-.45-23.5-12.52-46.93-25.18-70.15-38.21C6.56,172.46.06,160.73.03,145.63c-.04-23.32-.06-46.65.04-69.97.06-14.14,6.17-25.4,18.34-32.3,23.74-13.46,47.78-26.39,71.92-39.13,10.8-5.7,22.23-5.53,33.2-.1,9.08,4.49,17.88,9.54,27.38,14.65Z"/>
  <path class="cls-1" d="M252.31,48.32c-.08,23.71-17.8,42.76-39.71,42.7-23.6-.07-43.32-19.62-43.11-42.75.2-22.47,19.19-41.17,41.51-41.36,22.69-.2,43.08,21.91,41.31,41.41Z"/>
  <path class="cls-1" d="M611.45,152.35c-12.53,11.75-24.95,13.7-36.27,5.77-10.62-7.44-14.83-18.47-14.5-30.77.21-7.81,1.51-16.13,4.62-23.21,8.02-18.3,28.63-22.24,43.76-9.24.32.28.81.35,1.85.78v-30.48h18.74v95.25h-17.5c-.2-2.33-.42-4.86-.69-8.1ZM612.23,124.77c-1.4-4.87-2.22-10.03-4.35-14.56-2.64-5.59-7.76-7.82-14.06-7.37-5.88.42-9.53,3.68-11.54,8.83-3.39,8.68-3.4,17.53-.2,26.27,1.98,5.41,5.72,8.76,11.79,9.18,6.69.46,11.97-1.87,14.54-8.12,1.79-4.36,2.51-9.16,3.83-14.23Z"/>
  <path class="cls-1" d="M732.84,188.81v-13.69c2.12-.23,4.09-.38,6.03-.66,7.73-1.13,11.04-6.65,8.44-14.05-7.58-21.65-15.17-43.29-22.73-64.94-.64-1.84-1.11-3.73-1.87-6.31,6.5,0,12.43-.19,18.33.17,1.12.07,2.63,2.14,3.06,3.56,4.25,13.99,8.3,28.04,12.43,42.07.51,1.74,1.18,3.43,2.19,6.33,5.06-18.06,9.82-35.02,14.57-51.97h19.1c-.2,1.32-.19,2.49-.55,3.53-9.07,25.88-17.9,51.85-27.37,77.58-6.58,17.89-8.98,19.08-27.97,18.7-1.13-.02-2.26-.19-3.68-.32Z"/>
  <path class="cls-1" d="M415.98,89.37h18.38v71.18h-17.54c-.21-2.4-.41-4.78-.54-6.23-5.27,2.6-10.37,6.35-16.03,7.66-16.29,3.76-28.17-4.75-29.02-21.3-.87-16.9-.19-33.88-.19-51.18h18.78c0,1.93,0,3.71,0,5.49.04,13.5-.05,26.99.16,40.49.11,7.04,2.87,10.64,8.03,11.5,7.84,1.3,14.1-1.67,16.12-8.36,1.18-3.92,1.68-8.16,1.76-12.27.22-12.15.08-24.3.08-36.97Z"/>
  <path class="cls-1" d="M290.96,160.43v-95.4h19.33v78.13h47.65v17.27h-66.98Z"/>
  <path class="cls-1" d="M514.21,113.79h-18.53c-1.59-6.49-4.78-11.21-12.44-10.99-6.58.19-11.13,3.17-13,9.51-2.36,7.97-2.63,16.06-.42,24.13,2.02,7.41,6.01,10.65,12.99,10.68,7.33.03,9.92-2.16,12.3-10.4.14-.47.29-.94.51-1.63h18.53c-.37,6.71-3.34,11.95-7.03,16.96-11.03,14.98-44.9,15.46-53.83-5.65-6.01-14.21-6.14-28.7.46-42.55,8.67-18.19,38.6-22.84,53.06-8.66,5.08,4.98,7.14,11.32,7.41,18.61Z"/>
  <path class="cls-1" d="M687.89,103.97h-9.56v-12.9c2.93-.16,5.85-.32,9.44-.51v-19.45h18.34v19.52h11.21v13.19h-11.18c0,9.84,0,19.11,0,28.37,0,.83,0,1.66,0,2.5q0,11.17,11.24,12.54v13.65c-6.07,0-11.91.44-17.66-.11-8.04-.77-11.7-5.14-11.78-13.31-.12-12.49-.04-24.97-.05-37.46,0-1.79,0-3.59,0-6.02Z"/>
  <path class="cls-1" d="M546.5,160.56h-17.93v-70.98h17.93v70.98Z"/>
  <path class="cls-1" d="M665.87,160.57h-18.19v-71.11h18.19v71.11Z"/>
  <path class="cls-1" d="M528.48,64.99h18.1v16.66h-18.1v-16.66Z"/>
  <path class="cls-1" d="M647.62,81.73v-16.62h18.27v16.62h-18.27Z"/>
</svg>